#!OML:ASF F:\twosubjects\two\Thursday\Session 1\Rory.ASF
:FULLY-SPECIFIED
:DEGREES
410
root 4.4994 18.3237 -8.99519 -365.199 -63.5725 -349.341
lowerback 4.18473 0.0329173 1.78542
upperback 2.8557 0.0678568 -0.312905
thorax 0.588477 0.0463029 -1.32437
lowerneck -12.2846 4.47702 3.55654
upperneck 15.1192 6.81511 -8.48312
head 7.07244 2.72113 -2.66238
rclavicle 2.36554e-014 0
rhumerus -26.6781 -21.7007 -70.4641
rradius 18.5727
rwrist 32.0264
rhand -21.8313 19.0526
rfingers 7.12502
rthumb 4.57168 -10.878
lclavicle 2.36554e-014 0
lhumerus -42.9847 -2.93912 94.8434
lradius 90.5603
lwrist 23.7196
lhand -15.1075 48.3446
lfingers 7.12502
lthumb 11.061 78.0331
rfemur -11.6104 10.3875 13.6761
rtibia 22.6758
rfoot -13.2627 -5.40833
rtoes -18.8941
lfemur -21.718 14.6644 -16.6646
ltibia 26.0205
lfoot -13.9284 16.6784
ltoes 17.8239
411
root 4.52754 18.3241 -9.03474 -365.275 -63.6026 -349.27
lowerback 4.1251 -0.132952 1.72571
upperback 2.77606 -0.153854 -0.290957
thorax 0.531925 -0.0659816 -1.26039
lowerneck -12.1967 4.633 3.61697
upperneck 15.2802 7.02524 -8.46359
head 7.1239 2.82389 -2.64572
rclavicle 1.39149e-015 -3.97569e-015
rhumerus -27.2377 -21.9513 -69.8942
rradius 18.3015
rwrist 31.6294
rhand -21.9802 18.2065
rfingers 7.12502
rthumb 4.42791 -11.7272
lclavicle 1.39149e-015 -3.97569e-015
lhumerus -43.0404 -3.30357 94.9952
lradius 90.6282
lwrist 23.4672
lhand -14.4954 47.9701
lfingers 7.12502
lthumb 11.6514 77.6261
rfemur -11.7754 10.2043 13.6823
rtibia 22.7531
rfoot -13.3654 -5.58944
rtoes -20.8258
lfemur -21.8244 14.9337 -16.7225
ltibia 27.3527
lfoot -13.689 16.6006
ltoes 16.6979
412
root 4.55754 18.3259 -9.07621 -365.183 -63.6191 -349.342
lowerback 4.07327 -0.183202 1.68013
upperback 2.73407 -0.221971 -0.251223
thorax 0.515531 -0.101007 -1.19168
lowerneck -12.359 4.70259 3.94528
upperneck 15.4746 7.10902 -8.6866
head 7.24123 2.8539 -2.7612
rclavicle -2.127e-014 3.18055e-015
rhumerus -27.8938 -22.6796 -69.0287
rradius 18.0107
rwrist 31.4632
rhand -23.5326 17.8195
rfingers 7.12502
rthumb 2.92872 -12.1402
lclavicle -2.127e-014 3.18055e-015
lhumerus -42.9741 -4.19457 95.3234
lradius 90.7233
lwrist 22.9075
lhand -13.7328 47.721
lfingers 7.12502
lthumb 12.3868 77.334
rfemur -12.0196 10.0856 13.7492
rtibia 22.8671
rfoot -13.3809 -5.51342
rtoes -21.0213
lfemur -21.8559 15.4 -16.8117
ltibia 28.5733
lfoot -13.1538 16.4498
ltoes 14.0552
413
root 4.5868 18.3261 -9.11943 -364.684 -63.7229 -349.806
lowerback 3.95907 -0.11314 1.89793
upperback 2.68727 -0.122682 -0.187716
thorax 0.534518 -0.0487882 -1.25233
lowerneck -12.3994 4.68894 4.05913
upperneck 15.5965 7.09025 -8.76518
head 7.29365 2.84017 -2.80752
rclavicle 8.90555e-014 -7.15625e-015
rhumerus -28.6901 -23.4068 -67.9637
rradius 17.8892
rwrist 31.3344
rhand -21.8388 19.8043
rfingers 7.12502
rthumb 4.56447 -10.1266
lclavicle 8.90555e-014 -7.15625e-015
lhumerus -42.7809 -5.53101 95.8302
lradius 90.6045
lwrist 22.5222
lhand -13.2297 47.6289
lfingers 7.12502
lthumb 12.8718 77.2119
rfemur -12.4166 10.1859 14.0236
rtibia 23.081
rfoot -13.3673 -5.3795
rtoes -20.1577
lfemur -21.9104 16.0245 -16.7231
ltibia 29.7424
lfoot -12.732 16.1054
ltoes 10.993
414
root 4.61602 18.3207 -9.16195 -364.534 -63.6975 -349.932
lowerback 3.86699 -0.245594 1.88438
upperback 2.57014 -0.298124 -0.120742
thorax 0.459644 -0.137842 -1.17007
lowerneck -12.1041 4.78309 4.0681
upperneck 15.73 7.24024 -8.82802
head 7.29794 2.90919 -2.81939
rclavicle 3.33958e-014 -6.36111e-015
rhumerus -29.3883 -23.3282 -67.2059
rradius 17.8647
rwrist 30.9995
rhand -20.7562 20.959
rfingers 7.12502
rthumb 5.60972 -8.94673
lclavicle 3.33958e-014 -6.36111e-015
lhumerus -42.6861 -6.3327 96.1661
lradius 90.3995
lwrist 22.4076
lhand -13.1537 47.6885
lfingers 7.12502
lthumb 12.945 77.267
rfemur -12.7872 10.3079 14.1312
rtibia 23.3991
rfoot -13.4636 -5.33072
rtoes -19.4369
lfemur -21.8455 16.5943 -16.7884
ltibia 30.8659
lfoot -12.6572 15.4812
ltoes 10.168
415
root 4.65049 18.312 -9.19793 -364.491 -63.4309 -350.138
lowerback 3.89736 -0.552374 1.95366
upperback 2.57221 -0.703991 -0.0873206
thorax 0.430704 -0.34053 -1.16033
lowerneck -12.1622 4.97444 4.2852
upperneck 16.0074 7.51043 -8.99915
head 7.43277 3.02535 -2.88188
rclavicle -1.0138e-014 2.22639e-014
rhumerus -29.8122 -23.9248 -66.4756
rradius 17.653
rwrist 31.8955
rhand -21.9015 20.5283
rfingers 7.12502
rthumb 4.50387 -9.4038
lclavicle -1.0138e-014 2.22639e-014
lhumerus -42.58 -6.94388 96.3362
lradius 90.4102
lwrist 22.4416
lhand -13.5041 47.2352
lfingers 7.12502
lthumb 12.6072 76.8348
rfemur -12.8772 10.7283 14.2693
rtibia 23.7615
rfoot -13.703 -5.76931
rtoes -17.507
lfemur -21.5317 16.777 -16.7716
ltibia 31.927
lfoot -12.7709 14.9931
ltoes 10.0227
416
root 4.68388 18.3047 -9.23251 -364.612 -63.29 -350.38
lowerback 4.12954 -0.660872 2.04481
upperback 2.64619 -0.843052 -0.0686421
thorax 0.371568 -0.410042 -1.18511
lowerneck -12.1695 5.01746 4.37876
upperneck 16.1253 7.56147 -9.00854
head 7.48003 3.05075 -2.89513
rclavicle 2.36554e-014 -3.97569e-015
rhumerus -30.4569 -24.8303 -65.5386
rradius 17.574
rwrist 32.9794
rhand -24.8294 17.6009
rfingers 7.12502
rthumb 1.67631 -12.3723
lclavicle 2.36554e-014 -3.97569e-015
lhumerus -42.4256 -8.18356 96.7481
lradius 90.2377
lwrist 22.3127
lhand -14.5243 46.6379
lfingers 7.12502
lthumb 11.6236 76.2955
rfemur -12.7791 10.8678 14.4872
rtibia 24.1127
rfoot -13.8179 -6.01394
rtoes -16.5238
lfemur -20.9519 16.913 -16.6056
ltibia 32.9363
lfoot -12.9002 14.8078
ltoes 8.67151
417
root 4.71512 18.3014 -9.26677 -364.993 -63.2713 -350.206
lowerback 4.26353 -0.614974 1.92596
upperback 2.62025 -0.782602 -0.0994757
thorax 0.273302 -0.382092 -1.15076
lowerneck -11.6319 4.94174 4.44569
upperneck 15.9135 7.43508 -8.99824
head 7.30788 3.01572 -2.92626
rclavicle 1.55052e-014 -1.59028e-015
rhumerus -31.3528 -24.2012 -65.1727
rradius 17.9561
rwrist 31.8309
rhand -27.6151 14.5104
rfingers 7.12502
rthumb -1.01415 -15.467
lclavicle 1.55052e-014 -1.59028e-015
lhumerus -42.31 -9.64203 97.2718
lradius 89.8857
lwrist 21.8004
lhand -15.5304 46.7872
lfingers 7.12502
lthumb 10.6531 76.4972
rfemur -12.8655 10.0572 14.487
rtibia 24.3965
rfoot -13.6486 -5.39733
rtoes -17.8151
lfemur -20.4231 17.1849 -16.6453
ltibia 33.8961
lfoot -13.1598 14.4372
ltoes 7.84728
418
root 4.7473 18.3003 -9.30363 -364.922 -63.285 -350.394
lowerback 4.32019 -0.672172 1.94599
upperback 2.57033 -0.855652 -0.0960702
thorax 0.187736 -0.419349 -1.15447
lowerneck -11.3011 5.0035 4.73087
upperneck 15.7806 7.50247 -9.21817
head 7.2305 3.05819 -3.04408
rclavicle 3.35946e-014 -1.82882e-014
rhumerus -32.1537 -23.6272 -64.8741
rradius 18.3597
rwrist 31.3718
rhand -23.2062 17.3298
rfingers 7.12502
rthumb 3.24402 -12.6253
lclavicle 3.35946e-014 -1.82882e-014
lhumerus -42.1597 -10.7454 97.5836
lradius 89.8084
lwrist 21.6509
lhand -15.0814 46.7868
lfingers 7.12502
lthumb 11.0863 76.474
rfemur -13.059 9.84409 14.6429
rtibia 24.6391
rfoot -13.4628 -5.21388
rtoes -18.2524
lfemur -19.9869 17.3929 -16.507
ltibia 34.8203
lfoot -13.3787 13.7634
ltoes 8.09239
419
root 4.78193 18.297 -9.34348 -364.531 -63.2851 -350.877
lowerback 4.36535 -0.788721 1.87526
upperback 2.49348 -1.01016 0.0848455
thorax 0.0825867 -0.499626 -0.921537
lowerneck -11.1909 5.11088 4.85224
upperneck 15.772 7.68295 -9.52634
head 7.23972 3.12706 -3.1481
rclavicle -1.80894e-014 -8.74653e-015
rhumerus -32.9529 -23.7976 -64.0814
rradius 18.7131
rwrist 32.1165
rhand -23.5371 17.9176
rfingers 7.12502
rthumb 2.92439 -12.042
lclavicle -1.80894e-014 -8.74653e-015
lhumerus -41.9816 -11.697 98.0731
lradius 89.7912
lwrist 21.9149
lhand -13.4094 46.1459
lfingers 7.12502
lthumb 12.6985 75.7398
rfemur -13.2777 10.116 14.9394
rtibia 24.833
rfoot -13.3752 -5.43021
rtoes -18.2925
lfemur -19.6327 17.4534 -16.2346
ltibia 35.729
lfoot -13.6064 13.3679
ltoes 8.27216
420
root 4.82173 18.2869 -9.37854 -364.29 -63.1438 -351.157
lowerback 4.38571 -0.93312 1.62272
upperback 2.39629 -1.20816 0.301535
thorax -0.0250175 -0.603178 -0.548095
lowerneck -11.2574 5.21164 4.95777
upperneck 16.0586 7.86191 -9.75388
head 7.3727 3.18728 -3.2214
rclavicle 3.73715e-014 -3.97569e-015
rhumerus -33.2762 -21.9661 -64.344
rradius 19.3145
rwrist 29.7519
rhand -21.948 18.148
rfingers 7.12502
rthumb 4.45897 -11.785
lclavicle 3.73715e-014 -3.97569e-015
lhumerus -41.8073 -12.466 98.6824
lradius 89.5808
lwrist 21.5383
lhand -12.2023 46.0976
lfingers 7.12502
lthumb 13.8621 75.6157
rfemur -13.5102 9.76342 15.0953
rtibia 24.9532
rfoot -13.2981 -5.16173
rtoes -18.9069
lfemur -19.2882 17.4914 -16.1483
ltibia 36.5934
lfoot -14.0372 13.1703
ltoes 8.06083
421
root 4.86341 18.2797 -9.40744 -364.02 -62.9539 -351.575
lowerback 4.43445 -1.16969 1.63836
upperback 2.40712 -1.52172 0.436013
thorax -0.0444701 -0.760932 -0.404247
lowerneck -11.6065 5.39867 5.06781
upperneck 16.5368 8.13671 -9.79731
head 7.61985 3.29584 -3.21907
rclavicle 1.64991e-014 9.54166e-015
rhumerus -33.037 -19.7469 -64.9682
rradius 19.5674
rwrist 27.152
rhand -21.4181 17.7868
rfingers 7.12502
rthumb 4.97066 -12.1349
lclavicle 1.64991e-014 9.54166e-015
lhumerus -41.4796 -13.0683 98.963
lradius 89.447
lwrist 21.1024
lhand -11.8779 46.6823
lfingers 7.12502
lthumb 14.1747 76.1787
rfemur -13.6378 9.49134 15.3034
rtibia 25.0976
rfoot -13.3452 -4.91519
rtoes -17.234
lfemur -18.8081 17.5477 -15.9667
ltibia 37.3769
lfoot -14.5234 12.8151
ltoes 8.25943
422
root 4.90327 18.2836 -9.43449 -363.793 -62.8211 -351.856
lowerback 4.28981 -1.42852 1.56448
upperback 2.43527 -1.87254 0.595421
thorax 0.0659833 -0.937331 -0.188323
lowerneck -11.7668 5.59367 4.96111
upperneck 16.7163 8.43047 -9.76651
head 7.72585 3.42037 -3.15532
rclavicle -1.5704e-014 -7.95139e-015
rhumerus -33.1117 -20.2124 -64.1662
rradius 19.2867
rwrist 28.1595
rhand -22.1214 18.466
rfingers 7.12502
rthumb 4.29154 -11.4705
lclavicle -1.5704e-014 -7.95139e-015
lhumerus -41.1137 -13.7863 99.2165
lradius 89.505
lwrist 21.006
lhand -12.1874 46.8328
lfingers 7.12502
lthumb 13.8764 76.3499
rfemur -13.8579 9.46048 15.4301
rtibia 25.2693
rfoot -13.4737 -4.78221
rtoes -14.9889
lfemur -18.4603 17.5094 -15.8626
ltibia 38.0553
lfoot -14.6833 12.6836
ltoes 8.61162
423
root 4.94261 18.2818 -9.46335 -364.037 -62.7412 -351.561
lowerback 4.20621 -1.50659 0.878463
upperback 2.3349 -1.99937 0.90697
thorax 0.0416627 -1.00891 0.518653
lowerneck -11.6527 5.58741 4.75042
upperneck 16.7637 8.50286 -9.96985
head 7.72791 3.42247 -3.18292
rclavicle 5.28767e-014 -1.51076e-014
rhumerus -33.7043 -20.2884 -63.0311
rradius 19.4341
rwrist 28.4242
rhand -22.0583 20.0258
rfingers 7.12502
rthumb 4.3525 -9.90946
lclavicle 5.28767e-014 -1.51076e-014
lhumerus -40.9634 -14.6465 100.063
lradius 89.4566
lwrist 20.5488
lhand -11.9435 46.3426
lfingers 7.12502
lthumb 14.1115 75.8434
rfemur -14.0965 9.13563 15.2778
rtibia 25.3172
rfoot -13.3085 -4.46394
rtoes -15.8077
lfemur -18.0723 17.5614 -16.0576
ltibia 38.6091
lfoot -14.6711 12.8998
ltoes 8.201
424
root 4.9787 18.2771 -9.49112 -364.365 -62.6919 -351.32
lowerback 3.81868 -1.89988 3.91644
upperback 2.5004 -2.44228 -1.61921
thorax 0.200804 -1.1837 -3.77233
lowerneck -11.44 5.82975 6.67428
upperneck 16.4563 8.20451 -8.55372
head 7.57892 3.55303 -3.06594
rclavicle -5.82936e-014 3.57812e-015
rhumerus -35.0457 -22.8694 -65.4275
rradius 19.5544
rwrist 29.7215
rhand -22.5125 21.3255
rfingers 7.12502
rthumb 3.91388 -8.61833
lclavicle -5.82936e-014 3.57812e-015
lhumerus -41.1895 -17.2736 96.8131
lradius 89.7936
lwrist 20.453
lhand -11.6936 45.8106
lfingers 7.12502
lthumb 14.3523 75.2944
rfemur -14.175 8.59484 15.1839
rtibia 25.3521
rfoot -13.0293 -4.03186
rtoes -16.5971
lfemur -17.4149 17.6812 -16.166
ltibia 39.1206
lfoot -15.0676 13.1535
ltoes 7.54317
